<?xml version="1.0" encoding="UTF-8" standalone="no"?>
<svg
   xmlns:dc="http://purl.org/dc/elements/1.1/"
   xmlns:cc="http://creativecommons.org/ns#"
   xmlns:rdf="http://www.w3.org/1999/02/22-rdf-syntax-ns#"
   xmlns:svg="http://www.w3.org/2000/svg"
   xmlns="http://www.w3.org/2000/svg"
   viewBox="0 0 713.52002 109.6"
   height="109.6"
   width="713.52002"
   xml:space="preserve"
   id="svg2"
   version="1.1"><metadata
     id="metadata8"><rdf:RDF><cc:Work
         rdf:about=""><dc:format>image/svg+xml</dc:format><dc:type
           rdf:resource="http://purl.org/dc/dcmitype/StillImage" /></cc:Work></rdf:RDF></metadata><defs
     id="defs6" /><g
     transform="matrix(1.3333333,0,0,-1.3333333,0,109.6)"
     id="g10"><g
       transform="scale(0.1)"
       id="g12"><path
         id="path14"
         style="fill:#0d4d84;fill-opacity:1;fill-rule:nonzero;stroke:none"
         d="m 1971.95,594.973 c -23.41,28.242 -54.6,42.929 -101.39,42.929 H 1768.21 V 185.535 h 102.35 c 46.79,0 77.98,14.68 101.39,42.914 25.31,31.25 29.2,80.926 29.2,186.141 0,105.265 -3.89,149.082 -29.2,180.383 z M 2066.5,131.055 C 2020.66,85.168 1955.33,64.6172 1883.26,64.6172 H 1632.68 V 758.664 h 250.58 c 72.07,0 137.4,-20.43 183.24,-66.254 77.91,-77.926 70.15,-173.562 70.15,-277.82 0,-104.266 7.76,-205.652 -70.15,-283.535" /><path
         id="path16"
         style="fill:#0d4d84;fill-opacity:1;fill-rule:nonzero;stroke:none"
         d="M 2261.97,64.6172 V 758.352 h 135.37 V 64.6172 h -135.37" /><path
         id="path18"
         style="fill:#0d4d84;fill-opacity:1;fill-rule:nonzero;stroke:none"
         d="M 2796.95,637.578 H 2669.36 V 454.387 h 127.59 c 59.43,0 98.45,38.035 98.45,91.621 0,53.515 -39.02,91.57 -98.45,91.57 z M 2902.23,64.6172 2766.84,341.406 h -97.48 V 64.6172 H 2533.98 V 758.352 h 271.84 c 141.23,0 224.92,-96.457 224.92,-212.344 0,-97.52 -59.34,-157.891 -126.57,-182.219 L 3059.04,64.6172 h -156.81" /><path
         id="path20"
         style="fill:#0d4d84;fill-opacity:1;fill-rule:nonzero;stroke:none"
         d="M 3146.4,64.6172 V 758.352 h 456.85 V 637.578 H 3281.78 V 474.836 h 273.77 V 354.043 H 3281.78 V 185.535 h 321.47 V 64.6172 H 3146.4" /><path
         id="path22"
         style="fill:#0d4d84;fill-opacity:1;fill-rule:nonzero;stroke:none"
         d="m 3934.29,58.8672 c -74,0 -136.32,25.3047 -186.97,75.9688 -30.29,30.203 -48.77,65.32 -56.52,104.238 -7.81,38.992 -11.66,96.434 -11.66,172.449 0,76.047 3.85,133.489 11.66,172.422 7.75,39.922 26.23,74.063 56.52,104.153 50.65,50.781 112.97,76.062 186.97,76.062 133.54,0 231.93,-77.93 255.32,-219.148 h -137.42 c -14.66,59.402 -51.56,98.379 -116.86,98.379 -36.99,0 -66.27,-11.653 -86.75,-36.047 -28.15,-30.254 -34.03,-61.336 -34.03,-195.821 0,-134.511 5.88,-165.593 34.03,-195.847 20.48,-24.278 49.76,-35.988 86.75,-35.988 65.3,0 102.2,38.972 116.86,98.378 h 137.42 C 4166.22,136.797 4066.82,58.8672 3934.29,58.8672" /><path
         id="path24"
         style="fill:#0d4d84;fill-opacity:1;fill-rule:nonzero;stroke:none"
         d="M 4543.21,637.578 V 64.6172 H 4407.79 V 637.578 h -181.22 v 120.774 h 497.81 V 637.578 h -181.17" /><path
         id="path26"
         style="fill:#0d4d84;fill-opacity:1;fill-rule:nonzero;stroke:none"
         d="m 5121.39,64.6172 h -101.36 l -228.9,693.7348 h 140.18 l 139.4,-452.024 139.31,452.024 h 141.23 L 5121.39,64.6172" /><path
         id="path28"
         style="fill:#ffffff;fill-opacity:1;fill-rule:nonzero;stroke:none"
         d="M 1362.46,63.9766 C 1362.46,28.6523 1333.85,0 1298.49,0 H 63.9648 C 28.6328,0 0,28.6523 0,63.9766 V 758.047 c 0,35.324 28.6328,63.965 63.9648,63.965 H 1298.49 c 35.36,0 63.97,-28.641 63.97,-63.965 V 63.9766" /><path
         id="path30"
         style="fill:#0d4d84;fill-opacity:1;fill-rule:nonzero;stroke:none"
         d="M 1240.94,757.168 H 1069.3 C 1183.58,638.477 1206.97,489.434 1123.69,359.883 1029.45,223.945 765.73,100.363 448.586,64.1211 h 800.944 c 29.77,0 47.84,19.1992 47.84,44.7269 0,0 0,596.593 0,607.101 0,14.949 -10.56,41.219 -56.43,41.219" /><path
         id="path32"
         style="fill:#0b6fae;fill-opacity:1;fill-rule:nonzero;stroke:none"
         d="m 111.555,64.1211 h 108.883 c 461.027,22.6641 687.277,179.4919 699.328,338.5469 0.39,5.684 0.625,11.406 0.515,17.098 -3.277,158.203 -209.058,338.945 -623.379,336.797 H 113.965 c -29.2775,0 -48.1056,-21.415 -48.1056,-50.45 v -593.73 c 0,-18.1916 14.0117,-48.2619 45.6956,-48.2619" /><path
         id="path34"
         style="fill:#0d4d84;fill-opacity:1;fill-rule:nonzero;stroke:none"
         d="m 5304.97,156.602 c 25.77,0 46.42,-20.743 46.42,-46.172 0,-25.6644 -20.65,-46.3675 -46.42,-46.3675 -25.34,0 -46.18,20.7031 -46.18,46.3675 0,25.429 20.84,46.172 46.18,46.172 z m 0,-83.3207 c 20.98,0 36.4,15.4296 36.4,37.1487 0,21.523 -15.42,36.914 -36.4,36.914 -20.77,0 -36.16,-15.391 -36.16,-36.914 0,-21.7191 15.39,-37.1487 36.16,-37.1487 z m -17.39,65.2737 H 5308 c 12.42,0 18.54,-4.981 18.54,-16.035 0,-10.821 -6.23,-14.922 -13.81,-15.801 l 15.58,-22.0901 h -10.81 l -15.42,21.8551 h -5.29 V 84.6289 h -9.21 z m 9.21,-23.633 h 6.44 c 7.42,0 14.11,0.449 14.11,7.598 0,6.21 -6.08,7.636 -12.16,7.636 h -8.39 v -15.234" /></g></g></svg>