<?xml version="1.0" encoding="UTF-8" standalone="no"?>
<svg
   xmlns:dc="http://purl.org/dc/elements/1.1/"
   xmlns:cc="http://creativecommons.org/ns#"
   xmlns:rdf="http://www.w3.org/1999/02/22-rdf-syntax-ns#"
   xmlns:svg="http://www.w3.org/2000/svg"
   xmlns="http://www.w3.org/2000/svg"
   viewBox="0 0 177.08 132.57333"
   height="132.57333"
   width="177.08"
   xml:space="preserve"
   id="svg2"
   version="1.1"><metadata
     id="metadata8"><rdf:RDF><cc:Work
         rdf:about=""><dc:format>image/svg+xml</dc:format><dc:type
           rdf:resource="http://purl.org/dc/dcmitype/StillImage" /></cc:Work></rdf:RDF></metadata><defs
     id="defs6" /><g
     transform="matrix(1.3333333,0,0,-1.3333333,0,132.57333)"
     id="g10"><g
       transform="scale(0.1)"
       id="g12"><path
         id="path14"
         style="fill:#0492d2;fill-opacity:1;fill-rule:nonzero;stroke:none"
         d="M 700.332,647.367 C 700.09,838.691 486.363,956.523 33.8594,994.301 h -0.0391 c -18.0156,0 -32.6328,-13.086 -32.6328,-29.227 V 321.988 c 0,-16.14 14.6172,-29.234 32.6328,-29.234 H 63.4375 C 333.652,327.25 524.297,397.742 623.129,486.348 c 51.301,46.031 77.289,100.156 77.203,161.019" /><path
         id="path16"
         style="fill:#1c4f9c;fill-opacity:1;fill-rule:nonzero;stroke:none"
         d="m 1215.89,994.301 h -262.3 c 56.67,-18.852 104.18,-50.742 141.17,-82.356 38.47,-32.953 63.63,-70.738 74.94,-112.41 20.29,-75.055 -9.12,-153.379 -80.95,-214.871 C 993.039,502.539 843.941,434.57 645.648,382.496 532.434,352.738 402.438,317.398 262.414,292.754 h 953.476 c 18.03,0 32.63,13.094 32.63,29.234 v 643.086 c 0,16.141 -14.6,29.227 -32.63,29.227" /><path
         id="path18"
         style="fill:#1c4f9c;fill-opacity:1;fill-rule:nonzero;stroke:none"
         d="M 113.301,19.0586 C 101.547,7.32813 84.582,1.58203 65.2539,1.58203 H 0 V 187.449 h 65.2539 c 19.3281,0 36.2931,-5.746 48.0471,-17.488 20.109,-20.117 18.801,-47.25 18.801,-74.1407 0,-26.8906 1.308,-56.6484 -18.801,-76.7617 z M 93.9766,149.598 c -7.8243,8.605 -18.2696,12.531 -31.5821,12.531 H 28.1953 V 26.9102 h 34.1992 c 13.3125,0 23.7578,3.9062 31.5821,12.5039 9.6524,10.7187 9.9294,30.8203 9.9294,56.4062 0,25.5707 -0.277,43.0667 -9.9294,53.7777" /><path
         id="path20"
         style="fill:#1c4f9c;fill-opacity:1;fill-rule:nonzero;stroke:none"
         d="m 209.805,1.58203 h 28.1953 v 185.867 H 209.805 Z" /><path
         id="path22"
         style="fill:#1c4f9c;fill-opacity:1;fill-rule:nonzero;stroke:none"
         d="M 424.016,1.58203 384.859,79.8906 h -35.23 V 1.58203 H 321.438 V 187.449 h 72.039 c 35.246,0 57.691,-22.719 57.691,-54.301 0,-26.628 -16.168,-43.5972 -37.07,-49.3472 L 456.934,1.58203 Z M 391.391,162.129 h -41.762 v -58.211 h 41.762 c 18.797,0 31.582,10.695 31.582,28.973 0,18.269 -12.785,29.238 -31.582,29.238" /><path
         id="path24"
         style="fill:#1c4f9c;fill-opacity:1;fill-rule:nonzero;stroke:none"
         d="M 528.746,1.58203 V 187.449 h 118.77 v -25.32 h -90.59 V 107.82 h 77.265 V 82.7734 H 556.926 V 26.9102 h 90.59 V 1.58203 h -118.77" /><path
         id="path26"
         style="fill:#1c4f9c;fill-opacity:1;fill-rule:nonzero;stroke:none"
         d="M 779.387,0 C 760.059,0 743.352,7.05078 730.57,19.8398 712.293,38.1289 712.551,58.75 712.551,94.5156 c 0,35.7544 -0.258,56.3714 18.019,74.6644 12.782,12.785 29.489,19.82 48.817,19.82 34.191,0 59.765,-20.082 66.308,-57.168 h -28.726 c -4.43,18.813 -16.953,31.859 -37.582,31.859 -10.973,0 -20.891,-4.171 -27.414,-11.226 -9.125,-9.93 -11.231,-20.633 -11.231,-57.9494 0,-37.3281 2.106,-48.0468 11.231,-57.9492 6.523,-7.0703 16.441,-11.2383 27.414,-11.2383 20.629,0 33.41,13.0469 37.843,31.8594 h 28.465 C 839.43,20.1172 813.078,0 779.387,0" /><path
         id="path28"
         style="fill:#1c4f9c;fill-opacity:1;fill-rule:nonzero;stroke:none"
         d="M 1001.15,146.719 V 1.58203 H 955.465 V 146.719 h -45.672 v 40.73 h 137.047 v -40.73 h -45.69" /><path
         id="path30"
         style="fill:#1c4f9c;fill-opacity:1;fill-rule:nonzero;stroke:none"
         d="m 1196.77,1.58203 h -33.95 L 1101.47,187.449 h 47.25 l 31.34,-103.9099 30.79,103.9099 h 47.51 L 1196.77,1.58203" /><path
         id="path32"
         style="fill:#1c4f9c;fill-opacity:1;fill-rule:nonzero;stroke:none"
         d="m 1304.83,189.02 c 12.85,0 23.24,-10.411 23.24,-23.243 0,-12.839 -10.39,-23.242 -23.24,-23.242 -12.82,0 -23.23,10.403 -23.23,23.242 0,12.832 10.41,23.243 23.23,23.243 z m 0,-41.864 c 10.47,0 18.24,7.77 18.24,18.621 0,10.844 -7.77,18.614 -18.24,18.614 -10.46,0 -18.23,-7.77 -18.23,-18.614 0,-10.851 7.77,-18.621 18.23,-18.621 z m -8.79,32.805 h 10.27 c 6.22,0 9.32,-2.512 9.32,-8.078 0,-5.41 -3.15,-7.457 -6.94,-7.899 l 7.77,-11.109 h -5.4 l -7.76,10.977 h -2.63 v -10.977 h -4.63 z m 4.63,-11.875 h 3.21 c 3.72,0 7.12,0.262 7.12,3.797 0,3.14 -3.08,3.844 -6.09,3.844 h -4.24 v -7.641" /></g></g></svg>