<?xml version="1.0" encoding="utf-8"?>
<!-- Generator: Adobe Illustrator 16.0.0, SVG Export Plug-In . SVG Version: 6.00 Build 0)  -->
<!DOCTYPE svg PUBLIC "-//W3C//DTD SVG 1.1//EN" "http://www.w3.org/Graphics/SVG/1.1/DTD/svg11.dtd">
<svg version="1.1" id="Capa_1" xmlns="http://www.w3.org/2000/svg" xmlns:xlink="http://www.w3.org/1999/xlink" x="0px" y="0px"
	 width="35px" height="35.001px" viewBox="257.49 357.5 35 35.001" enable-background="new 257.49 357.5 35 35.001"
	 xml:space="preserve">
<g>
	<path fill="#E7ECED" d="M270.526,383.521l-4.476,2.441c-0.262,0.144-0.499,0.319-0.718,0.512c2.609,2.199,5.978,3.527,9.659,3.527
		c3.653,0,7-1.308,9.602-3.479c-0.24-0.202-0.5-0.385-0.789-0.528l-4.793-2.396c-0.619-0.311-1.011-0.943-1.011-1.635v-1.881
		c0.136-0.153,0.29-0.351,0.454-0.583c0.653-0.923,1.147-1.938,1.49-3.003c0.615-0.189,1.067-0.757,1.067-1.432v-2.007
		c0-0.441-0.196-0.836-0.501-1.112v-2.902c0,0,0.595-4.515-5.52-4.515c-6.115,0-5.52,4.515-5.52,4.515v2.902
		c-0.305,0.276-0.501,0.671-0.501,1.112v2.007c0,0.529,0.278,0.994,0.694,1.263c0.501,2.184,1.814,3.755,1.814,3.755v1.834
		C271.479,382.585,271.113,383.2,270.526,383.521z"/>
	<g>
		<path fill="#333E48" d="M275.247,360.001c-8.283-0.141-15.113,6.459-15.254,14.742c-0.081,4.697,2.013,8.917,5.346,11.725
			c0.218-0.19,0.452-0.364,0.712-0.507l4.476-2.44c0.587-0.321,0.953-0.937,0.953-1.604v-1.834c0,0-1.313-1.572-1.815-3.756
			c-0.416-0.269-0.694-0.732-0.694-1.262v-2.008c0-0.441,0.196-0.836,0.502-1.112v-2.902c0,0-0.597-4.516,5.519-4.516
			c6.115,0,5.519,4.516,5.519,4.516v2.902c0.306,0.276,0.502,0.671,0.502,1.112v2.008c0,0.674-0.453,1.243-1.067,1.432
			c-0.343,1.064-0.837,2.08-1.49,3.002c-0.165,0.232-0.319,0.43-0.454,0.584v1.88c0,0.692,0.393,1.325,1.012,1.635l4.792,2.396
			c0.288,0.145,0.548,0.326,0.787,0.528c3.232-2.696,5.32-6.726,5.397-11.265C290.13,366.974,283.53,360.143,275.247,360.001z"/>
	</g>
</g>
</svg>
